<svg width="24" height="25" viewBox="0 0 24 25" fill="none" xmlns="http://www.w3.org/2000/svg">
<path d="M16.1667 4.01675L18.8418 1.34158C19.0606 1.12287 19.3573 1 19.6667 1C19.976 1 20.2727 1.12287 20.4915 1.34158L22.3418 3.19192C22.5605 3.4107 22.6834 3.70739 22.6834 4.01675C22.6834 4.32611 22.5605 4.6228 22.3418 4.84158L19.6667 7.51675M16.1667 4.01675L9.5085 10.6749C9.28969 10.8937 9.16673 11.1904 9.16667 11.4998V13.3501C9.16667 13.6595 9.28958 13.9562 9.50838 14.175C9.72717 14.3938 10.0239 14.5168 10.3333 14.5168H12.1837C12.4931 14.5167 12.7898 14.3937 13.0085 14.1749L19.6667 7.51675M16.1667 4.01675L19.6667 7.51675M4.5 14.5168H3.33333C2.71449 14.5168 2.121 14.7626 1.68342 15.2002C1.24583 15.6378 1 16.2312 1 16.8501C1 17.4689 1.24583 18.0624 1.68342 18.5C2.121 18.9376 2.71449 19.1834 3.33333 19.1834H19.6667C20.2855 19.1834 20.879 19.4293 21.3166 19.8668C21.7542 20.3044 22 20.8979 22 21.5168C22 22.1356 21.7542 22.7291 21.3166 23.1667C20.879 23.6043 20.2855 23.8501 19.6667 23.8501H15" stroke="#00A6E2" stroke-width="2" stroke-linecap="round" stroke-linejoin="round"/>
</svg>
