<svg width="52" height="52" viewBox="0 0 52 52" fill="none" xmlns="http://www.w3.org/2000/svg">
<rect width="52" height="52" rx="10" fill="url(#paint0_linear_82_2495)"/>
<g clip-path="url(#clip0_82_2495)">
<path d="M39.7898 18.755L38.7223 16.4625C38.5902 16.1804 38.3975 15.931 38.1579 15.7319C37.9183 15.5329 37.6378 15.3891 37.3363 15.311C33.9448 14.387 30.0545 13.8217 26.0435 13.7517C22.0905 13.8138 18.1601 14.3628 14.3413 15.3862C14.0525 15.4702 13.5485 15.8937 13.2825 16.452L12.2098 18.7567C12.0724 19.0404 12.0006 19.3515 11.9998 19.6667V21.1892L11.998 21.261C11.998 21.947 12.5545 22.5035 13.2405 22.5035L13.2983 22.5017H17.7048C18.052 22.4935 18.3823 22.3497 18.625 22.1012C18.8676 21.8527 19.0034 21.5191 19.0033 21.1717L18.9998 21.079V19.5915C18.9999 19.4013 19.0477 19.2142 19.1388 19.0473C19.2299 18.8804 19.3614 18.7389 19.5213 18.636C21.5208 17.5725 23.7791 17.0928 26.0383 17.2517C28.2924 17.1001 30.5443 17.5775 32.543 18.6307C32.7933 18.804 33.0015 19.1557 33.0015 19.5565V21.0825C32.9897 21.2613 33.0141 21.4407 33.0733 21.6098C33.1325 21.779 33.2253 21.9344 33.3461 22.0668C33.4669 22.1992 33.6132 22.3058 33.7762 22.3802C33.9393 22.4547 34.1156 22.4954 34.2948 22.5H38.7065L38.7608 22.5017C39.0903 22.5017 39.4064 22.3708 39.6394 22.1378C39.8724 21.9048 40.0033 21.5887 40.0033 21.2592L40.0015 21.184V19.665C40.001 19.3452 39.9273 19.0297 39.7863 18.7427L39.7898 18.755Z" fill="white"/>
<path d="M33 26.525C31.8611 25.0655 31.2443 23.2663 31.2482 21.415L31.25 21.268V20.75H29.5V22.5H22.5V20.75H20.75V21.3275L20.7517 21.4675C20.7543 23.3262 20.1324 25.1319 18.986 26.595L13.75 33V38.25H38.25V33L33 26.525ZM26 34.75C24.6076 34.75 23.2723 34.1969 22.2877 33.2123C21.3031 32.2277 20.75 30.8924 20.75 29.5C20.75 28.1076 21.3031 26.7723 22.2877 25.7877C23.2723 24.8031 24.6076 24.25 26 24.25C27.3924 24.25 28.7277 24.8031 29.7123 25.7877C30.6969 26.7723 31.25 28.1076 31.25 29.5C31.25 30.8924 30.6969 32.2277 29.7123 33.2123C28.7277 34.1969 27.3924 34.75 26 34.75Z" fill="white"/>
<path d="M29.5001 29.5C29.5106 29.9661 29.4279 30.4296 29.2569 30.8633C29.0858 31.297 28.8298 31.6921 28.504 32.0255C28.1781 32.3589 27.7889 32.6239 27.3592 32.8048C26.9296 32.9857 26.4681 33.079 26.0019 33.0791C25.5356 33.0792 25.0741 32.9862 24.6443 32.8055C24.2146 32.6248 23.8252 32.36 23.4992 32.0268C23.1732 31.6935 22.917 31.2985 22.7457 30.8649C22.5744 30.4313 22.4915 29.9678 22.5018 29.5017C22.5221 28.5872 22.8995 27.717 23.5533 27.0773C24.2071 26.4376 25.0854 26.0793 26.0001 26.0791C26.9148 26.0789 27.7933 26.4367 28.4474 27.0761C29.1015 27.7155 29.4794 28.5855 29.5001 29.5Z" fill="white"/>
</g>
<defs>
<linearGradient id="paint0_linear_82_2495" x1="0" y1="26" x2="52" y2="26" gradientUnits="userSpaceOnUse">
<stop stop-color="#0064B5"/>
<stop offset="1" stop-color="#00A9DF"/>
</linearGradient>
<clipPath id="clip0_82_2495">
<rect width="28" height="28" fill="white" transform="translate(12 12)"/>
</clipPath>
</defs>
</svg>
