<svg width="52" height="52" viewBox="0 0 52 52" fill="none" xmlns="http://www.w3.org/2000/svg">
<rect width="52" height="52" rx="10" fill="url(#paint0_linear_82_2467)"/>
<g clip-path="url(#clip0_82_2467)">
<path d="M39.7186 19.231L36.3936 16.669C36.1676 16.524 35.922 16.4123 35.6642 16.3372C35.4076 16.2535 35.1402 16.2073 34.8704 16.2H25.3L26.4214 23.2H34.8704C35.1 23.2 35.387 23.1482 35.6628 23.0628C35.9386 22.9774 36.2046 22.8598 36.3922 22.7324L39.7172 20.1676C39.9062 20.0402 40 19.8708 40 19.7C40 19.5292 39.9062 19.3598 39.7186 19.231ZM23.9 13.4H22.5C22.3143 13.4 22.1363 13.4738 22.005 13.605C21.8737 13.7363 21.8 13.9144 21.8 14.1V19H17.1296C16.8972 19 16.6116 19.0518 16.3358 19.1386C16.0586 19.2226 15.794 19.3388 15.6064 19.469L12.2814 22.031C12.0924 22.1584 12 22.3292 12 22.5C12 22.6694 12.0924 22.8388 12.2814 22.969L15.6064 25.5338C15.794 25.6612 16.0586 25.7788 16.3358 25.8628C16.6116 25.9482 16.8972 26 17.1296 26H21.8V37.9C21.8 38.0857 21.8737 38.2637 22.005 38.395C22.1363 38.5263 22.3143 38.6 22.5 38.6H23.9C24.0857 38.6 24.2637 38.5263 24.395 38.395C24.5263 38.2637 24.6 38.0857 24.6 37.9V14.1C24.6 13.9144 24.5263 13.7363 24.395 13.605C24.2637 13.4738 24.0857 13.4 23.9 13.4Z" fill="white"/>
</g>
<defs>
<linearGradient id="paint0_linear_82_2467" x1="0" y1="26" x2="52" y2="26" gradientUnits="userSpaceOnUse">
<stop stop-color="#0064B5"/>
<stop offset="1" stop-color="#00A9DF"/>
</linearGradient>
<clipPath id="clip0_82_2467">
<rect width="28" height="28" fill="white" transform="translate(12 12)"/>
</clipPath>
</defs>
</svg>
