<svg width="42" height="42" viewBox="0 0 42 42" fill="none" xmlns="http://www.w3.org/2000/svg">
<rect width="42" height="42" rx="5" fill="url(#paint0_linear_76_2112)"/>
<path d="M30.083 13.548C29.8273 13.3124 29.5273 13.1301 29.2004 13.0116C28.8735 12.8931 28.5263 12.8409 28.179 12.858H26.753C26.603 12.4102 26.3382 12.0095 25.985 11.696C25.7253 11.4603 25.4218 11.278 25.0916 11.1596C24.7615 11.0412 24.4113 10.989 24.061 11.006H17.979C17.6173 10.9813 17.2544 11.0296 16.9118 11.1481C16.5692 11.2667 16.254 11.453 15.985 11.696C15.6356 12.0085 15.3771 12.4096 15.237 12.857H13.831C13.4789 12.837 13.1263 12.8877 12.7942 13.0063C12.462 13.1248 12.1569 13.3086 11.897 13.547C11.6279 13.7903 11.4099 14.0847 11.2559 14.4132C11.1019 14.7417 11.0149 15.0975 11 15.46C11.0137 16.7525 11.3569 18.0201 11.997 19.143C12.6413 20.2908 13.5463 21.2712 14.639 22.005L15.487 22.575L16.125 22.965C16.652 23.787 17.3657 24.473 18.208 24.967V26.727H17.82C17.106 26.727 16.42 27.013 15.916 27.519C15.4105 28.026 15.127 28.713 15.128 29.429V29.76C15.127 29.9231 15.1582 30.0847 15.2198 30.2358C15.2814 30.3868 15.3722 30.5241 15.487 30.64C15.72 30.872 16.036 31.002 16.364 31.001H25.636C25.8817 31.0036 26.1224 30.932 26.3267 30.7955C26.5311 30.659 26.6894 30.464 26.781 30.236C26.843 30.086 26.874 29.923 26.872 29.76V29.43C26.872 28.713 26.589 28.026 26.084 27.52C25.5794 27.0147 24.8951 26.7299 24.181 26.728H23.791V24.957C24.6373 24.4644 25.3549 23.7783 25.885 22.955L26.543 22.555L27.351 22.005C28.4461 21.2667 29.3541 20.2834 30.003 19.133C30.6457 17.9963 30.9888 16.7148 31 15.409C30.948 14.693 30.6191 14.0255 30.083 13.548ZM13.303 18.42C12.8093 17.5317 12.5453 16.5342 12.535 15.518C12.5499 15.2764 12.6363 15.0448 12.7832 14.8525C12.9301 14.6602 13.1309 14.5159 13.36 14.438C13.511 14.388 13.672 14.366 13.831 14.378H15.137V19.721C15.1457 20.0063 15.169 20.2897 15.207 20.571C14.4265 19.998 13.7774 19.264 13.303 18.42ZM23.861 17.201C23.8285 17.3688 23.7451 17.5224 23.622 17.641L22.964 18.281L23.124 19.201C23.1491 19.364 23.13 19.5307 23.0686 19.6838C23.0072 19.8368 22.9058 19.9706 22.775 20.071C22.6347 20.1632 22.4734 20.2185 22.306 20.232H22.246C22.0998 20.2298 21.9563 20.1921 21.828 20.122L21.01 19.692L20.182 20.122C20.037 20.2043 19.8699 20.2393 19.704 20.222C19.538 20.2134 19.3781 20.1568 19.2436 20.0592C19.109 19.9616 19.0057 19.8271 18.946 19.672C18.8841 19.5165 18.8668 19.3468 18.896 19.182L19.046 18.261L18.388 17.621C18.2668 17.5049 18.1832 17.3551 18.148 17.191C18.0944 17.0283 18.0944 16.8527 18.148 16.69C18.1934 16.5342 18.2882 16.3974 18.418 16.3C18.5432 16.1871 18.6991 16.114 18.866 16.09L19.764 15.96L20.192 15.109C20.2592 14.9616 20.3712 14.8391 20.512 14.759C20.6527 14.6719 20.815 14.6257 20.9805 14.6257C21.146 14.6257 21.3083 14.6719 21.449 14.759C21.5948 14.8402 21.7102 14.9665 21.778 15.119L22.196 15.959L23.124 16.089C23.2856 16.1183 23.4363 16.1904 23.5606 16.2976C23.685 16.4049 23.7783 16.5435 23.831 16.699C23.8936 16.8517 23.9042 17.0207 23.861 17.18V17.201ZM28.717 18.421C28.2345 19.2598 27.5868 19.9919 26.813 20.573C26.851 20.283 26.8743 19.9927 26.883 19.702V14.378H28.218C28.3762 14.367 28.535 14.3889 28.6844 14.4422C28.8338 14.4956 28.9705 14.5793 29.086 14.688C29.313 14.888 29.456 15.168 29.485 15.469C29.4788 16.5016 29.2148 17.5163 28.717 18.421Z" fill="white"/>
<defs>
<linearGradient id="paint0_linear_76_2112" x1="0" y1="21" x2="42" y2="21" gradientUnits="userSpaceOnUse">
<stop stop-color="#0064B5"/>
<stop offset="1" stop-color="#00A9DF"/>
</linearGradient>
</defs>
</svg>
