<svg width="32" height="32" viewBox="0 0 32 32" fill="none" xmlns="http://www.w3.org/2000/svg">
<rect width="32" height="32" rx="5" fill="url(#paint0_linear_76_1948)"/>
<path fill-rule="evenodd" clip-rule="evenodd" d="M16 7.25C14.3424 7.25 12.7527 7.90848 11.5806 9.08058C10.4085 10.2527 9.75 11.8424 9.75 13.5C9.75 14.925 10.45 16.61 11.4712 18.4175C12.505 20.2463 13.93 22.3013 15.4913 24.4888L16 25.2013L16.5087 24.4888C18.0712 22.3013 19.495 20.2463 20.5288 18.4175C21.55 16.61 22.25 14.925 22.25 13.5C22.25 12.6792 22.0883 11.8665 21.7742 11.1082C21.4602 10.3499 20.9998 9.66095 20.4194 9.08058C19.8391 8.50022 19.1501 8.03984 18.3918 7.72575C17.6335 7.41166 16.8208 7.25 16 7.25ZM16 10.375C15.1712 10.375 14.3763 10.7042 13.7903 11.2903C13.2042 11.8763 12.875 12.6712 12.875 13.5C12.875 14.3288 13.2042 15.1237 13.7903 15.7097C14.3763 16.2958 15.1712 16.625 16 16.625C16.8288 16.625 17.6237 16.2958 18.2097 15.7097C18.7958 15.1237 19.125 14.3288 19.125 13.5C19.125 12.6712 18.7958 11.8763 18.2097 11.2903C17.6237 10.7042 16.8288 10.375 16 10.375Z" fill="white"/>
<defs>
<linearGradient id="paint0_linear_76_1948" x1="0" y1="16" x2="32" y2="16" gradientUnits="userSpaceOnUse">
<stop stop-color="#0064B5"/>
<stop offset="1" stop-color="#00A9DF"/>
</linearGradient>
</defs>
</svg>
