<svg width="32" height="32" viewBox="0 0 32 32" fill="none" xmlns="http://www.w3.org/2000/svg">
<rect width="32" height="32" rx="5" fill="url(#paint0_linear_76_1965)"/>
<path d="M24.3337 17.2316V21C24.3337 21.663 24.0703 22.2989 23.6014 22.7677C23.1326 23.2366 22.4967 23.5 21.8337 23.5H10.167C9.50395 23.5 8.86807 23.2366 8.39923 22.7677C7.93038 22.2989 7.66699 21.663 7.66699 21V17.2316L8.12783 17.4625C10.5703 18.6926 13.267 19.3333 16.0018 19.333C18.7365 19.3327 21.4331 18.6915 23.8753 17.4608L24.3337 17.2316ZM17.667 7.66663C18.33 7.66663 18.9659 7.93002 19.4348 8.39886C19.9036 8.8677 20.167 9.50358 20.167 10.1666V11H21.8337C22.4967 11 23.1326 11.2634 23.6014 11.7322C24.0703 12.201 24.3337 12.8369 24.3337 13.5V15.3683L23.1278 15.9716C20.9703 17.0592 18.5926 17.6386 16.1766 17.6655C13.7607 17.6924 11.3706 17.166 9.18949 16.1266L8.65033 15.86L7.66699 15.3683V13.5C7.66699 12.8369 7.93038 12.201 8.39923 11.7322C8.86807 11.2634 9.50395 11 10.167 11H11.8337V10.1666C11.8337 9.50358 12.0971 8.8677 12.5659 8.39886C13.0347 7.93002 13.6706 7.66663 14.3337 7.66663H17.667ZM16.0003 14.3333C15.7793 14.3333 15.5674 14.4211 15.4111 14.5774C15.2548 14.7337 15.167 14.9456 15.167 15.1666C15.1664 15.2761 15.1875 15.3845 15.2288 15.4858C15.2702 15.5872 15.3311 15.6793 15.4081 15.7571C15.4851 15.8349 15.5767 15.8967 15.6776 15.9391C15.7785 15.9815 15.8867 16.0036 15.9962 16.0041C16.1056 16.0047 16.2141 15.9837 16.3154 15.9423C16.4167 15.9009 16.5089 15.84 16.5866 15.763C16.6644 15.686 16.7262 15.5944 16.7686 15.4935C16.811 15.3926 16.8331 15.2844 16.8337 15.175C16.8337 14.7066 16.4603 14.3333 16.0003 14.3333ZM17.667 9.33329H14.3337C14.1126 9.33329 13.9007 9.42109 13.7444 9.57737C13.5881 9.73365 13.5003 9.94561 13.5003 10.1666V11H18.5003V10.1666C18.5003 9.94561 18.4125 9.73365 18.2562 9.57737C18.1 9.42109 17.888 9.33329 17.667 9.33329Z" fill="white"/>
<defs>
<linearGradient id="paint0_linear_76_1965" x1="0" y1="16" x2="32" y2="16" gradientUnits="userSpaceOnUse">
<stop stop-color="#0064B5"/>
<stop offset="1" stop-color="#00A9DF"/>
</linearGradient>
</defs>
</svg>
