<svg width="42" height="42" viewBox="0 0 42 42" fill="none" xmlns="http://www.w3.org/2000/svg">
<rect width="42" height="42" rx="5" fill="url(#paint0_linear_76_2130)"/>
<path d="M27.6469 15.1099C27.6367 15.2111 27.6308 15.3266 27.6281 15.4519L26.1904 16.1385C25.989 16.1055 24.9904 16.1636 23.5009 15.4286C23.1232 15.2422 22.7543 15.1432 22.3999 15.1432C22.0792 15.1436 21.7631 15.22 21.4777 15.3664C21.1016 15.285 20.5598 15.0765 20.2429 15.0772C19.5259 15.081 17.8958 15.6649 17.4443 15.7148C17.0025 15.7631 16.5476 15.8846 16.0898 16.0781C15.2576 15.8359 14.2144 15.4402 13.6556 15.2216L9.75 12.375V21.5287L12.6203 22.8945C12.6619 22.8457 12.7095 22.7708 12.7613 22.6777L12.8501 22.719C12.8936 22.8315 12.9416 22.9435 12.9941 23.055C12.6791 23.5852 12.6416 24.1826 12.8932 24.702C13.1089 25.1464 13.5105 25.4584 13.9579 25.5458C13.9822 25.8225 14.0752 26.0903 14.232 26.3224C14.5132 26.7375 14.9602 26.9854 15.4286 26.9854C15.4711 26.9854 15.5134 26.9831 15.5554 26.9786C15.6221 27.159 15.72 27.327 15.8471 27.4725C16.1299 27.7976 16.5259 27.984 16.9331 27.984C16.9631 27.984 16.9928 27.983 17.022 27.981C17.0738 28.1775 17.1619 28.3635 17.2849 28.5292C17.568 28.9117 18.0049 29.1394 18.4541 29.1394C18.7331 29.1394 18.9998 29.0539 19.2349 28.8937C19.6894 29.1855 20.0846 29.3906 20.4352 29.5166C20.6111 29.5882 20.7941 29.625 20.9809 29.625C21.4226 29.625 21.8512 29.4187 22.1572 29.058C22.2709 28.9237 22.3631 28.7737 22.4306 28.6132C22.5628 28.6531 22.7001 28.6736 22.8383 28.674C23.3077 28.674 23.7529 28.4441 24.0607 28.0421C24.2071 27.8517 24.3131 27.6333 24.372 27.4005C24.4043 27.4028 24.4363 27.4039 24.468 27.4039C25.0106 27.4039 25.53 27.0855 25.8221 26.5729C25.9752 26.3062 26.0565 26.0044 26.058 25.6969C26.5942 25.617 27.0664 25.2356 27.2962 24.6795C27.5228 24.1316 27.4613 23.5271 27.1451 23.0231L28.6058 22.2C28.6433 22.3282 28.68 22.4464 28.7156 22.5424L32.25 20.6617V12.9908L27.6469 15.1099ZM27.6465 16.2487C27.6698 16.6545 27.7121 17.1131 27.7669 17.592C27.4669 17.088 27.0881 16.8581 26.6179 16.7437L27.6465 16.2487ZM25.686 25.1572C24.8805 24.8801 23.2039 22.9091 23.2039 22.9091H23.2369C23.4075 22.8971 23.7761 22.7175 24.1898 22.8034C23.5402 22.2454 22.8259 22.7175 22.3395 22.4284C22.4524 22.7902 22.995 22.9043 23.1341 22.9088L24.7406 24.777C25.4681 25.6226 24.9615 26.6689 24.2321 26.8354C23.7428 26.5972 22.3609 24.9536 22.3609 24.9536C22.4081 24.945 22.6883 24.8573 22.9736 24.8948C22.3148 24.402 21.5677 24.8295 21.1245 24.5201C21.3758 25.1407 22.2034 24.9817 22.29 24.9667L23.1495 26.064C23.8372 26.9415 23.2969 27.9551 22.5664 28.0924C21.9187 27.8647 21.4984 27.0548 21.4984 27.0548C21.5636 27.0442 21.7819 26.9471 22.0924 26.9921C21.54 26.508 20.8969 26.9471 20.5103 26.6715C20.7491 27.192 21.3446 27.0735 21.378 27.0697C21.9735 28.0076 21.3559 28.9856 20.6179 29.0149H20.6171L20.6164 29.0153C20.1731 28.9384 19.7089 28.584 19.1846 28.2203C19.3646 28.0208 19.5236 27.6701 19.5236 27.6701C20.0501 26.7169 19.3669 25.8739 18.6615 25.9462C19.2338 26.1026 19.6628 26.8331 19.2161 27.6442L19.02 27.9742C18.807 28.3624 18.4744 28.5968 18.2299 28.5679C17.8534 28.5221 17.3227 27.9724 17.5459 27.1969C17.6321 27.1181 18.4639 25.8458 18.4639 25.8458C19.0357 24.9248 18.3938 24.0431 17.6865 24.0731C18.2498 24.2633 18.6446 25.0185 18.159 25.8022L17.4829 26.8564C17.2523 27.2291 16.9538 27.4402 16.6691 27.4012C16.2274 27.3412 15.9176 26.8024 15.9885 26.2463C15.9847 26.2496 16.4753 25.701 16.4753 25.701C17.127 24.8494 16.569 23.8984 15.8629 23.8485C16.4055 24.1013 16.7287 24.8977 16.1749 25.6226L15.9356 25.9159C15.6731 26.2601 15.357 26.4353 15.0803 26.3663C14.5973 26.2451 14.346 25.3414 14.5744 25.095C14.754 24.9011 15.2584 24.2872 15.2584 24.2872C15.9097 23.4352 15.3525 22.4846 14.6456 22.434C15.1886 22.6875 15.5119 23.484 14.958 24.2092L14.7188 24.5018C14.4548 24.849 14.1375 25.0234 13.8589 24.9525C13.2784 24.8055 12.9885 23.9093 13.5439 23.1818C13.5439 23.1818 13.3553 22.5825 13.2701 22.3264L12.9904 22.1966C13.6463 20.6685 14.637 17.2958 14.6828 16.1753C15.1658 16.3474 16.4407 16.7141 16.5761 16.7149L16.5754 16.7156C17.9479 16.2844 19.3864 16.332 20.0426 16.0785C20.2552 15.9975 20.6783 15.9922 21.1268 16.2487C20.8466 16.4944 20.5819 16.7869 20.307 17.0595C19.65 17.7116 17.2073 18.7286 17.6783 19.7981C18.0848 20.721 19.2296 21.6652 21.15 20.1829L22.23 20.0344L23.9096 20.8631L26.0621 23.0737C26.8298 23.8605 26.3951 24.9285 25.686 25.1572ZM26.226 22.7216C25.9792 22.2604 25.2101 21.504 24.4841 20.8856L24.4796 20.8811C24.8145 20.8946 25.1659 20.3554 25.62 20.3138C25.3027 20.0715 24.777 20.3513 24.6131 20.3955C23.7097 20.6385 22.3057 19.5019 22.3057 19.5019L20.9625 19.6954C20.9625 19.6954 19.365 21.645 18.0191 20.0389C17.2883 19.1666 19.9369 18.0274 20.5894 17.379C21.4253 16.5484 22.17 15.5321 23.5451 16.2244C24.6874 16.8004 25.1374 16.7648 26.6696 17.0314C27.1264 17.1112 27.4429 17.3205 27.7822 17.7289C27.942 19.0729 28.2004 20.5635 28.4482 21.6007C28.3204 21.7084 27.2243 22.4456 26.226 22.7216Z" fill="white"/>
<defs>
<linearGradient id="paint0_linear_76_2130" x1="0" y1="21" x2="42" y2="21" gradientUnits="userSpaceOnUse">
<stop stop-color="#0064B5"/>
<stop offset="1" stop-color="#00A9DF"/>
</linearGradient>
</defs>
</svg>
