<svg width="42" height="42" viewBox="0 0 42 42" fill="none" xmlns="http://www.w3.org/2000/svg">
<rect width="42" height="42" rx="5" fill="url(#paint0_linear_76_2120)"/>
<path fill-rule="evenodd" clip-rule="evenodd" d="M11.0283 20.25C11.2175 17.7347 12.3502 15.3839 14.1995 13.6685C16.0488 11.9531 18.478 11 21.0003 11C20.1703 11 19.4303 11.364 18.8203 11.921C18.2153 12.475 17.7043 13.249 17.2903 14.163C16.8743 15.083 16.5503 16.159 16.3313 17.326C16.1537 18.2915 16.0474 19.2688 16.0133 20.25H11.0283ZM11.0283 21.75H16.0133C16.0493 22.752 16.1563 23.738 16.3313 24.674C16.5513 25.841 16.8743 26.917 17.2903 27.837C17.7043 28.751 18.2153 29.525 18.8203 30.079C19.4303 30.636 20.1703 31 21.0003 31C15.7303 31 11.4113 26.923 11.0283 21.75Z" fill="white"/>
<path d="M20.9998 12.395C20.7248 12.395 20.3698 12.512 19.9568 12.89C19.5408 13.271 19.1238 13.868 18.7558 14.681C18.3898 15.489 18.0928 16.464 17.8888 17.554C17.7288 18.412 17.6288 19.322 17.5928 20.25H24.4068C24.3742 19.3453 24.2753 18.4442 24.1108 17.554C23.9068 16.464 23.6108 15.489 23.2438 14.681C22.8758 13.868 22.4598 13.271 22.0438 12.891C21.6298 12.512 21.2748 12.395 20.9998 12.395ZM17.8888 24.446C18.0928 25.536 18.3898 26.511 18.7558 27.319C19.1238 28.132 19.5408 28.729 19.9558 29.109C20.3698 29.488 20.7258 29.605 20.9998 29.605C21.2748 29.605 21.6298 29.488 22.0428 29.11C22.4598 28.729 22.8758 28.132 23.2438 27.319C23.6098 26.511 23.9068 25.536 24.1108 24.446C24.2718 23.588 24.3718 22.678 24.4068 21.75H17.5928C17.6278 22.678 17.7278 23.588 17.8888 24.446Z" fill="white"/>
<path d="M21 11C21.831 11 22.57 11.364 23.18 11.921C23.785 12.475 24.297 13.249 24.71 14.163C25.127 15.083 25.45 16.159 25.669 17.326C25.844 18.262 25.951 19.248 25.987 20.25H30.972C30.7828 17.7347 29.6501 15.3839 27.8008 13.6685C25.9516 11.9531 23.5224 11 21 11ZM25.669 24.674C25.45 25.841 25.127 26.917 24.71 27.837C24.297 28.751 23.785 29.525 23.18 30.079C22.57 30.636 21.831 31 21 31C26.27 31 30.589 26.923 30.972 21.75H25.987C25.9529 22.7312 25.8466 23.7085 25.669 24.674Z" fill="white"/>
<defs>
<linearGradient id="paint0_linear_76_2120" x1="0" y1="21" x2="42" y2="21" gradientUnits="userSpaceOnUse">
<stop stop-color="#0064B5"/>
<stop offset="1" stop-color="#00A9DF"/>
</linearGradient>
</defs>
</svg>
